<?xml version="1.0" standalone="no"?>
<!DOCTYPE svg PUBLIC "-//W3C//DTD SVG 20010904//EN"
 "http://www.w3.org/TR/2001/REC-SVG-20010904/DTD/svg10.dtd">
<svg version="1.0" xmlns="http://www.w3.org/2000/svg"
 width="619.000000pt" height="619.000000pt" viewBox="0 0 619.000000 619.000000"
 preserveAspectRatio="xMidYMid meet">
<metadata>
Created by potrace 1.11, written by Peter Selinger 2001-2013
</metadata>
<g transform="translate(0.000000,619.000000) scale(0.100000,-0.100000)"
fill="#000000" stroke="none">
<path d="M2454 5890 c-297 -29 -553 -121 -810 -291 -152 -100 -399 -348 -503
-503 -130 -196 -211 -385 -257 -598 -36 -168 -45 -524 -19 -729 67 -532 231
-1054 514 -1634 212 -435 685 -1219 934 -1549 141 -188 320 -407 327 -399 226
269 704 973 948 1395 50 87 89 158 87 158 -2 0 -246 -72 -541 -160 -296 -88
-539 -159 -540 -157 -2 2 118 322 267 712 148 390 272 719 275 731 4 16 -14
51 -68 128 -60 87 -77 106 -93 101 -145 -38 -225 -47 -380 -42 -189 6 -291 30
-433 101 -276 139 -476 382 -559 682 -25 91 -28 114 -28 274 0 160 3 183 28
274 65 236 197 431 391 577 102 78 233 143 354 177 91 25 109 27 292 26 182 0
201 -2 285 -27 349 -105 632 -384 728 -718 20 -69 47 -243 47 -304 0 -12 14
-15 63 -14 l62 0 239 317 c147 193 239 324 238 336 -2 38 -131 280 -199 376
-85 118 -309 345 -428 433 -221 163 -472 268 -742 311 -119 19 -362 27 -479
16z"/>
<path d="M4270 4323 c-201 -262 -369 -483 -375 -490 -8 -11 -110 -8 -609 17
-330 17 -608 30 -617 28 -13 -2 56 -108 276 -426 161 -232 318 -460 350 -506
l57 -84 -202 -534 c-111 -293 -211 -554 -221 -580 l-18 -47 27 9 c15 5 270 81
567 170 297 88 552 165 567 170 25 8 59 -17 510 -380 266 -213 484 -388 485
-387 0 1 7 280 14 619 l13 617 513 337 c282 185 513 339 513 342 0 4 -257 97
-571 207 -314 110 -574 202 -578 205 -4 3 -79 268 -166 590 -87 322 -161 588
-164 592 -4 4 -171 -207 -371 -469z"/>
</g>
</svg>
